<svg id="Group_51158" data-name="Group 51158" xmlns="http://www.w3.org/2000/svg" width="29.996" height="29.996" viewBox="0 0 29.996 29.996">
  <g id="BULINE" transform="translate(0.09 0.09)">
    <circle id="Ellipse_9219" data-name="Ellipse 9219" cx="14.908" cy="14.908" r="14.908" fill="#27273d"/>
  </g>
  <g id="Icons" transform="translate(0 0)">
    <path id="Path_49247" data-name="Path 49247" d="M30,15A15,15,0,0,1,0,15q0-.567.042-1.123.033-.451.093-.894A14.935,14.935,0,0,1,.595,10.8q.165-.569.374-1.118t.469-1.1A15,15,0,0,1,3.445,5.434c.07-.086.142-.17.214-.253q.269-.311.554-.605.119-.123.24-.24l.161-.157.161-.153q.4-.369.82-.71h0A15,15,0,0,1,8.135,1.664q.4-.209.82-.393A14.772,14.772,0,0,1,10.8.6q.442-.13.9-.234.6-.134,1.212-.22c.149-.021.3-.039.448-.055.124-.014.248-.026.374-.036C14.149.018,14.572,0,15,0A15,15,0,0,1,30,15Z" transform="translate(0 0)" fill="#1b35a5"/>
    <path id="Path_49248" data-name="Path 49248" d="M14.4.91V2.326L11.536,5.192l-1.1,1.1L9.409,7.317l-1.9,1.9L6.266,10.46l-.82.82L1.994,14.732H.71q.033-.451.093-.894a14.935,14.935,0,0,1,.46-2.178l4.18-4.18.163-.163.659-.66.367-.367L9.625,3.3l1.848-1.848q.441-.125.894-.23.6-.134,1.212-.22c.149-.021.3-.039.448-.055C14.15.932,14.275.92,14.4.91Z" transform="translate(-0.668 -0.857)" fill="#fff"/>
    <path id="Path_49249" data-name="Path 49249" d="M72.532,64.726V67.15H71.154l-3.4-3.4-4.017-4.017-1.026-1.026-.253-.253q.269-.311.554-.605.119-.123.24-.24l.161-.157.161-.153q.4-.369.82-.71l1.246,1.246,1.9,1.9,2.125,2.125,1.1,1.1Z" transform="translate(-58.801 -53.275)" fill="#fff"/>
    <path id="Path_49250" data-name="Path 49250" d="M133.661,1.52l-4.487,4.487H127.79l.644-.644.82-.82L132,1.8q.6-.134,1.212-.22C133.362,1.555,133.511,1.536,133.661,1.52Z" transform="translate(-120.303 -1.431)" fill="#db1b1b"/>
    <path id="Path_49251" data-name="Path 49251" d="M179.882,171.467v1.384l-3.392-3.391h1.384Z" transform="translate(-166.15 -159.532)" fill="#db1b1b"/>
    <path id="Path_49252" data-name="Path 49252" d="M72.71,71.717h-.8q.119-.123.24-.24l.161-.157Z" transform="translate(-67.697 -67.142)" fill="#db1b1b"/>
    <g id="Group_51157" data-name="Group 51157" transform="translate(0.967 1.27)">
      <path id="Path_49253" data-name="Path 49253" d="M29.265,24.736v5.352H24.489v4.19H20.308V30.086H16.5q.213-.561.469-1.1a15,15,0,0,1,2.01-3.151c.07-.086.142-.17.214-.253q.269-.311.554-.605.119-.123.24-.24h.322v-.312q.4-.369.82-.71h0a15,15,0,0,1,2.536-1.651q.4-.209.82-.393v3.066Z" transform="translate(-16.5 -21.67)" fill="#fff"/>
      <path id="Path_49254" data-name="Path 49254" d="M93.928,295.029l-2.268-1.486,1.447-2.151-2.541.939-.821-2.581-.821,2.581-2.541-.939,1.447,2.151-2.268,1.486,2.7.2-.43,2.816,1.916-2.111,1.916,2.111-.431-2.816Z" transform="translate(-81.514 -274.044)" fill="#fff"/>
      <path id="Path_49255" data-name="Path 49255" d="M339.9,61.268l-1.082-.709.69-1.026-1.212.448-.392-1.231-.392,1.231-1.212-.448.69,1.026-1.082.709,1.287.094-.205,1.343.914-1.007.914,1.007-.205-1.343Z" transform="translate(-317.197 -56.578)" fill="#fff"/>
      <path id="Path_49256" data-name="Path 49256" d="M259.992,192.819l-1.082-.709.69-1.026-1.213.448L258,190.3l-.392,1.232-1.212-.448.69,1.026-1.082.709,1.287.093-.205,1.343.914-1.007.914,1.007-.205-1.343Z" transform="translate(-241.968 -180.421)" fill="#fff"/>
      <path id="Path_49257" data-name="Path 49257" d="M417.992,143.938l-1.082-.709.69-1.026-1.213.448L416,141.42l-.392,1.231-1.212-.448.69,1.026-1.082.709,1.287.093-.205,1.343.914-1.008.914,1.008-.205-1.343Z" transform="translate(-390.712 -134.404)" fill="#fff"/>
      <path id="Path_49258" data-name="Path 49258" d="M339.9,388.768l-1.082-.709.69-1.026-1.212.448-.392-1.231-.392,1.231-1.212-.448.69,1.026-1.082.709,1.287.093-.205,1.343.914-1.007.914,1.007-.205-1.343Z" transform="translate(-317.197 -364.891)" fill="#fff"/>
      <path id="Path_49259" data-name="Path 49259" d="M398.118,276.03l.356,1.095h1.152l-.931.677.356,1.1-.931-.677-.932.677.356-1.1-.931-.677h1.151Z" transform="translate(-374.341 -261.128)" fill="#fff"/>
    </g>
    <path id="Path_49260" data-name="Path 49260" d="M16.463,29.925Q15.74,30,15,30A15,15,0,0,1,0,15q0-.567.042-1.123.033-.451.093-.894A14.935,14.935,0,0,1,.595,10.8q.165-.569.374-1.118t.469-1.1A15,15,0,0,1,3.445,5.434c.07-.086.142-.17.214-.253q.269-.311.554-.605.119-.123.24-.24l.161-.157.161-.153q.4-.369.82-.71h0A15,15,0,0,1,8.135,1.664q.4-.209.82-.393A14.772,14.772,0,0,1,10.8.6q.442-.13.9-.234.6-.134,1.212-.22c.149-.021.3-.039.448-.055.124-.014.248-.026.374-.036C14.149.018,14.572,0,15,0q.741,0,1.465.071a14.893,14.893,0,0,0-2.731.524q-.684.2-1.339.46A14.956,14.956,0,0,0,9.415,2.648l-.459.458V2.977q-.423.316-.82.661A14.991,14.991,0,0,0,4.365,8.585q-.255.538-.469,1.1c-.03.08-.059.161-.089.243q-.2.55-.352,1.118-.124.454-.22.92A15.015,15.015,0,0,0,16.463,29.925Z" transform="translate(0 0)" fill="#1a358e"/>
    <path id="Path_49261" data-name="Path 49261" d="M14.4.91v.541q-.684.2-1.339.46A14.956,14.956,0,0,0,10.084,3.5l-.459.458V3.833q-.423.316-.82.661A14.991,14.991,0,0,0,5.033,9.442q-.255.538-.469,1.1c-.03.08-.059.161-.089.243q-.2.55-.352,1.118-.124.454-.22.92L1.994,14.732H.71q.033-.451.093-.894a14.935,14.935,0,0,1,.46-2.178l1.118-1.118,1.1-1.1L5.443,7.48l.163-.163.659-.66.367-.367.875-.875L8.8,4.121l.82-.82L11.47,1.453q.444-.128.9-.232.6-.134,1.212-.22c.149-.021.3-.039.448-.055C14.15.932,14.275.92,14.4.91Z" transform="translate(-0.668 -0.857)" fill="#dddbdb"/>
    <path id="Path_49262" data-name="Path 49262" d="M65.8,58a15.093,15.093,0,0,0-1.67,2.133l-.392-.392-1.027-1.029-.253-.253q.269-.311.554-.605.119-.123.24-.24l.161-.157.161-.153q.4-.369.82-.71Z" transform="translate(-58.801 -53.275)" fill="#fff"/>
    <path id="Path_49263" data-name="Path 49263" d="M164.652,1.52l-.965.966a14.955,14.955,0,0,0-2.977,1.593l2.285-2.285q.6-.134,1.212-.22C164.353,1.555,164.5,1.536,164.652,1.52Z" transform="translate(-151.295 -1.431)" fill="#bf1b1b"/>
    <path id="Path_49264" data-name="Path 49264" d="M72.71,71.717h-.8q.119-.123.24-.24l.161-.157Z" transform="translate(-67.697 -67.142)" fill="#db1b1b"/>
    <path id="Path_49265" data-name="Path 49265" d="M24.489,21.63v1.71q-.423.316-.82.661A14.991,14.991,0,0,0,19.9,28.948q-.255.538-.469,1.1H16.5q.213-.561.469-1.1a15,15,0,0,1,2.01-3.151c.07-.086.142-.17.214-.253q.269-.311.554-.605.119-.123.24-.24h.322v-.312q.4-.369.82-.71h0a15,15,0,0,1,2.536-1.651Q24.071,21.814,24.489,21.63Z" transform="translate(-15.533 -20.363)" fill="#dddbdb"/>
    <path id="Path_49266" data-name="Path 49266" d="M36.834,32.114v3.151h-5.6v5.29H28.7v-5.29H24.54a15,15,0,0,1,2.007-3.151H28.7V29.991a15,15,0,0,1,2.536-1.651v3.774Z" transform="translate(-23.102 -26.68)" fill="#db1b1b"/>
    <path id="Path_49267" data-name="Path 49267" d="M31.2,28.34v1.978a14.991,14.991,0,0,0-3.769,4.947H24.5a15,15,0,0,1,2.01-3.151h2.152V29.991A15,15,0,0,1,31.2,28.34Z" transform="translate(-23.065 -26.68)" fill="#bf1b1b"/>
    <path id="Path_49268" data-name="Path 49268" d="M5.238,169.46l-3.945,3.947H.71q.033-.451.093-.894l3.054-3.053Z" transform="translate(-0.668 -159.532)" fill="#db1b1b"/>
    <path id="Path_49269" data-name="Path 49269" d="M4.477,169.46q-.2.55-.352,1.118l-2.831,2.829H.71q.033-.451.093-.894l3.054-3.053Z" transform="translate(-0.668 -159.532)" fill="#bf1b1b"/>
    <circle id="Ellipse_9220" data-name="Ellipse 9220" cx="0.954" cy="0.954" r="0.954" transform="translate(26.889 15.221)" fill="#2548b7"/>
    <circle id="Ellipse_9221" data-name="Ellipse 9221" cx="0.676" cy="0.676" r="0.676" transform="translate(27.168 13.512)" fill="#2548b7"/>
  </g>
</svg>
