<svg xmlns="http://www.w3.org/2000/svg" width="29.998" height="29.803" viewBox="0 0 29.998 29.803">
  <g id="Group_51160" data-name="Group 51160" transform="translate(0 -0.092)">
    <circle id="Ellipse_9222" data-name="Ellipse 9222" cx="14.901" cy="14.901" r="14.901" transform="translate(0.098 0.092)" fill="#f0f0f0"/>
    <g id="Group_51159" data-name="Group 51159" transform="translate(0 1.482)">
      <path id="Path_49270" data-name="Path 49270" d="M375.782,38.913A15,15,0,0,0,367.3,25.4V52.423A15,15,0,0,0,375.782,38.913Z" transform="translate(-345.784 -25.402)" fill="#d80027"/>
      <path id="Path_49271" data-name="Path 49271" d="M0,38.913A15,15,0,0,0,8.478,52.423V25.4A15,15,0,0,0,0,38.913Z" transform="translate(0 -25.402)" fill="#d80027"/>
      <path id="Path_49272" data-name="Path 49272" d="M174.783,184.608l2.608-1.3-1.3-.652v-1.3l-2.609,1.3,1.3-2.609h-1.3l-1.3-1.956-1.3,1.956h-1.3l1.3,2.609-2.609-1.3v1.3l-1.3.652,2.608,1.3-.652,1.3h2.609v1.956h1.3v-1.956h2.609Z" transform="translate(-157.175 -169.141)" fill="#d80027"/>
    </g>
  </g>
</svg>
