<svg xmlns="http://www.w3.org/2000/svg" width="30" height="30" viewBox="0 0 30 30">
  <g id="Group_51150" data-name="Group 51150" transform="translate(0.168 0.168)">
    <circle id="Ellipse_9214" data-name="Ellipse 9214" cx="15" cy="15" r="15" transform="translate(-0.168 -0.168)" fill="#0052b4"/>
    <g id="Group_51149" data-name="Group 51149" transform="translate(5.738 5.738)">
      <path id="Path_49220" data-name="Path 49220" d="M222.94,100.174l.484,1.489h1.565l-1.266.92.484,1.489-1.266-.92-1.266.92.484-1.489-1.266-.92h1.565Z" transform="translate(-213.846 -100.174)" fill="#ffda44"/>
      <path id="Path_49221" data-name="Path 49221" d="M139.423,139.422l1.395.711,1.107-1.107-.245,1.546,1.395.711-1.546.245-.245,1.546-.711-1.395-1.546.245,1.107-1.107Z" transform="translate(-136.76 -136.759)" fill="#ffda44"/>
      <path id="Path_49222" data-name="Path 49222" d="M100.175,222.939l1.489-.484V220.89l.92,1.266,1.489-.484-.92,1.266.92,1.266-1.489-.484-.92,1.266v-1.565Z" transform="translate(-100.175 -213.845)" fill="#ffda44"/>
      <path id="Path_49223" data-name="Path 49223" d="M139.423,307.271l.711-1.395-1.107-1.107,1.546.245.711-1.395.245,1.546,1.546.245-1.395.711.245,1.546-1.107-1.107Z" transform="translate(-136.76 -291.747)" fill="#ffda44"/>
      <path id="Path_49224" data-name="Path 49224" d="M222.94,348.942l-.484-1.489h-1.565l1.266-.92-.484-1.489,1.266.92,1.266-.92-.484,1.489,1.266.92h-1.565Z" transform="translate(-213.846 -330.754)" fill="#ffda44"/>
      <path id="Path_49225" data-name="Path 49225" d="M307.273,307.271l-1.395-.711-1.107,1.107.245-1.546-1.395-.711,1.546-.245.245-1.546.711,1.395,1.546-.245-1.107,1.107Z" transform="translate(-291.749 -291.747)" fill="#ffda44"/>
      <path id="Path_49226" data-name="Path 49226" d="M348.942,222.939l-1.489.484v1.565l-.92-1.266-1.489.484.92-1.266-.92-1.266,1.489.484.92-1.266v1.565Z" transform="translate(-330.754 -213.845)" fill="#ffda44"/>
      <path id="Path_49227" data-name="Path 49227" d="M307.273,139.423l-.711,1.395,1.107,1.107-1.546-.245-.711,1.395-.245-1.546-1.546-.245,1.395-.711-.245-1.546,1.107,1.107Z" transform="translate(-291.749 -136.759)" fill="#ffda44"/>
    </g>
  </g>
</svg>
