<svg id="Group_51137" data-name="Group 51137" xmlns="http://www.w3.org/2000/svg" width="29.999" height="29.998" viewBox="0 0 29.999 29.998">
  <circle id="Ellipse_9213" data-name="Ellipse 9213" cx="14" cy="14" r="14" transform="translate(0.999 0.999)" fill="#f0f0f0"/>
  <g id="Group_51136" data-name="Group 51136" transform="translate(0.517 3.261)">
    <path id="Path_49189" data-name="Path 49189" d="M244.87,193.13h15.651a15.015,15.015,0,0,0-.517-3.913H244.87Z" transform="translate(-231.04 -181.391)" fill="#d80027"/>
    <path id="Path_49190" data-name="Path 49190" d="M244.87,59.565h13.45a15.078,15.078,0,0,0-3.461-3.913H244.87Z" transform="translate(-231.04 -55.652)" fill="#d80027"/>
    <path id="Path_49191" data-name="Path 49191" d="M105.981,459.609a14.935,14.935,0,0,0,9.337-3.261H96.644A14.935,14.935,0,0,0,105.981,459.609Z" transform="translate(-91.498 -432.871)" fill="#d80027"/>
    <path id="Path_49192" data-name="Path 49192" d="M10.5,326.695H36.1a14.91,14.91,0,0,0,1.685-3.913H8.819A14.91,14.91,0,0,0,10.5,326.695Z" transform="translate(-8.819 -307.131)" fill="#d80027"/>
  </g>
  <path id="Path_49193" data-name="Path 49193" d="M6.948,2.342H8.315l-1.271.924.486,1.495L6.258,3.837l-1.271.924.42-1.291A15.082,15.082,0,0,0,2.5,6.712h.438L2.125,7.3q-.189.316-.363.641L2.149,9.13l-.721-.524q-.269.57-.491,1.164l.426,1.311H2.935L1.663,12,2.149,13.5.878,12.576l-.762.553A15.144,15.144,0,0,0,0,15H15V0A14.928,14.928,0,0,0,6.948,2.342ZM7.529,13.5l-1.271-.924L4.986,13.5,5.472,12,4.2,11.081H5.772l.486-1.495.486,1.495H8.315L7.043,12ZM7.043,7.635,7.529,9.13,6.258,8.206,4.986,9.13l.486-1.495L4.2,6.712H5.772l.486-1.495.486,1.495H8.315ZM12.909,13.5l-1.271-.924-1.271.924L10.852,12l-1.271-.924h1.572l.486-1.495.486,1.495h1.572L12.424,12Zm-.486-5.864.486,1.495-1.271-.924-1.271.924.486-1.495L9.581,6.712h1.572l.486-1.495.486,1.495h1.572Zm0-4.369.486,1.495-1.271-.924-1.271.924.486-1.495L9.581,2.342h1.572L11.638.848l.486,1.495h1.572Z" transform="translate(0)" fill="#0052b4"/>
</svg>
