<svg xmlns="http://www.w3.org/2000/svg" width="145.25" height="11.5" viewBox="0 0 145.25 11.5">
  <g id="Group_51176" data-name="Group 51176" transform="translate(-133.75 -252.75)">
    <line id="Line_304" data-name="Line 304" x2="137" transform="translate(134.5 258.5)" fill="none" stroke="#367cc7" stroke-linecap="round" stroke-width="1.5" stroke-dasharray="6"/>
    <path id="Path_49308" data-name="Path 49308" d="M15,7.5l.53-.53a.75.75,0,0,0-1.061,0ZM9.47,11.97A.75.75,0,0,0,10.53,13.03Zm10,1.061A.75.75,0,0,0,20.53,11.97ZM14.25,14a.75.75,0,0,0,1.5,0Zm.22-7.03-5,5L10.53,13.03l5-5Zm0,1.061,5,5L20.53,11.97l-5-5ZM15.75,14V7.5h-1.5V14Z" transform="translate(285.75 243.5) rotate(90)" fill="#367cc7"/>
  </g>
</svg>
