<svg xmlns="http://www.w3.org/2000/svg" width="6.335" height="6.338" viewBox="0 0 6.335 6.338">
  <g id="Icon_ionic-ios-close-circle-outline" data-name="Icon ionic-ios-close-circle-outline" transform="translate(-13.359 -12.354)">
    <path id="Path_49594" data-name="Path 49594" d="M18.508,17.612l-2.083-2.083,2.083-2.083a.632.632,0,1,0-.893-.893l-2.083,2.083-2.083-2.083a.632.632,0,0,0-.893.893l2.083,2.083-2.083,2.083a.611.611,0,0,0,0,.893.628.628,0,0,0,.893,0l2.083-2.083,2.083,2.083a.635.635,0,0,0,.893,0A.628.628,0,0,0,18.508,17.612Z" transform="translate(1)" fill="#223f70"/>
  </g>
</svg>
