<svg xmlns="http://www.w3.org/2000/svg" width="15.903" height="17.5" viewBox="0 0 15.903 17.5">
  <g id="Group_50999" data-name="Group 50999" transform="translate(-5.25 -4.25)">
    <path id="Path_48277" data-name="Path 48277" d="M21,12c-.01-1.74-.087-2.682-.7-3.3-.7-.7-1.834-.7-4.1-.7H13.8c-2.263,0-3.394,0-4.1.7S9,10.537,9,12.8v4c0,2.263,0,3.394.7,4.1s1.834.7,4.1.7h2.4c2.263,0,3.394,0,4.1-.7s.7-1.834.7-4.1V16" transform="translate(-0.6 -0.6)" fill="none" stroke="#00aeef" stroke-linecap="round" stroke-width="1.5"/>
    <path id="Path_48278" data-name="Path 48278" d="M6,11.4v4.8a2.4,2.4,0,0,0,2.4,2.4M18,7.4A2.4,2.4,0,0,0,15.6,5H12.4c-3.017,0-4.525,0-5.463.937A3.46,3.46,0,0,0,6.081,8.2" fill="none" stroke="#00aeef" stroke-linecap="round" stroke-width="1.5"/>
  </g>
</svg>
