<svg xmlns="http://www.w3.org/2000/svg" width="12.785" height="12.785" viewBox="0 0 12.785 12.785">
  <g id="Icon_feather-copy" data-name="Icon feather-copy" transform="translate(-2.25 -2.25)">
    <path id="Path_49591" data-name="Path 49591" d="M14.628,13.5h5.078a1.128,1.128,0,0,1,1.128,1.128v5.078a1.128,1.128,0,0,1-1.128,1.128H14.628A1.128,1.128,0,0,1,13.5,19.707V14.628A1.128,1.128,0,0,1,14.628,13.5Z" transform="translate(-6.55 -6.55)" fill="none" stroke="#fff" stroke-linecap="round" stroke-linejoin="round" stroke-width="1.5"/>
    <path id="Path_49592" data-name="Path 49592" d="M4.693,10.335H4.128A1.128,1.128,0,0,1,3,9.207V4.128A1.128,1.128,0,0,1,4.128,3H9.207a1.128,1.128,0,0,1,1.128,1.128v.564" transform="translate(0 0)" fill="none" stroke="#fff" stroke-linecap="round" stroke-linejoin="round" stroke-width="1.5"/>
  </g>
</svg>
