<svg xmlns="http://www.w3.org/2000/svg" width="30" height="30" viewBox="0 0 30 30">
  <g id="Group_51100" data-name="Group 51100" transform="translate(-17 -163)">
    <circle id="Ellipse_1" data-name="Ellipse 1" cx="15" cy="15" r="15" transform="translate(17 163)" fill="#fff"/>
    <g id="Group_51467" data-name="Group 51467" transform="translate(22.544 168.544)">
      <g id="Group_51467-2" data-name="Group 51467" transform="translate(0.001 0.001)">
        <path id="Path_49607" data-name="Path 49607" d="M6.439,33.3a6.438,6.438,0,1,1,6.438-6.438A6.438,6.438,0,0,1,6.439,33.3Zm0-12.065a5.628,5.628,0,1,0,5.628,5.628,5.628,5.628,0,0,0-5.628-5.628Z" transform="translate(-0.001 -14.387)" fill="#367cc7" stroke="#367cc7" stroke-width="0.5"/>
        <path id="Path_49608" data-name="Path 49608" d="M33.818,10.464a.405.405,0,1,1,0-.811A4.421,4.421,0,1,0,29.4,5.233a.405.405,0,0,1-.811,0,5.232,5.232,0,1,1,5.232,5.231Z" transform="translate(-20.14 -0.001)" fill="#367cc7" stroke="#367cc7" stroke-width="0.5"/>
        <path id="Path_49609" data-name="Path 49609" d="M15.647,36.637a.406.406,0,0,1-.405-.405v-.6a.2.2,0,0,0-.2-.2h-.6a.2.2,0,0,0-.2.2v.6a.405.405,0,1,1-.81,0v-.6a.2.2,0,0,0-.2-.2h-.6a.405.405,0,1,1,0-.81h.6a.2.2,0,0,0,.2-.2V30.8a.2.2,0,0,0-.2-.2h-.6a.405.405,0,0,1,0-.811h.6a.2.2,0,0,0,.2-.2v-.6a.405.405,0,0,1,.81,0v.6a.2.2,0,0,0,.2.2h.6a.2.2,0,0,0,.2-.2v-.6a.405.405,0,0,1,.811,0v.715a.2.2,0,0,0,.131.186,1.594,1.594,0,0,1,.859,2.3.2.2,0,0,0,.066.266,1.61,1.61,0,0,1-.858,2.971.2.2,0,0,0-.2.2v.6A.406.406,0,0,1,15.647,36.637Zm-1.206-3.62a.2.2,0,0,0-.2.2v1.207a.2.2,0,0,0,.2.2h1.81a.8.8,0,0,0,0-1.6Zm0-2.413a.2.2,0,0,0-.2.2v1.206a.2.2,0,0,0,.2.2h1.206a.8.8,0,0,0,0-1.6Z" transform="translate(-8.606 -20.141)" fill="#00aeef" stroke="#00aeef" stroke-width="0.5"/>
        <path id="Path_49610" data-name="Path 49610" d="M42.044,12.566c-.007-.03.033-.222-.139-.276a1.625,1.625,0,0,1-1.041-.958.405.405,0,1,1,.758-.286.848.848,0,0,0,.814.5c.759,0,1.435-1-.135-1.615-2.027-.8-1.743-2.614-.389-3.093.175-.062.124-.257.132-.3a.405.405,0,1,1,.811,0c.007.03-.033.222.139.276a1.625,1.625,0,0,1,1.041.958.405.405,0,0,1-.758.287c-.278-.739-1.629-.643-1.629.241,0,.945,2.413.9,2.413,2.51a1.548,1.548,0,0,1-1.075,1.461c-.176.062-.124.257-.132.3a.405.405,0,1,1-.811,0Z" transform="translate(-28.772 -4.318)" fill="#00aeef" stroke="#00aeef" stroke-width="0.5"/>
      </g>
    </g>
  </g>
</svg>
