<svg xmlns="http://www.w3.org/2000/svg" width="30" height="30" viewBox="0 0 30 30">
  <g id="Group_51100" data-name="Group 51100" transform="translate(-17 -163)">
    <circle id="Ellipse_1" data-name="Ellipse 1" cx="15" cy="15" r="15" transform="translate(17 163)" fill="#fff"/>
    <g id="Group_51461" data-name="Group 51461" transform="translate(22.85 166.864)">
      <path id="Path_49596" data-name="Path 49596" d="M16.895,11.872a.644.644,0,0,1-.645-.645V1.582a.645.645,0,1,1,1.29,0v9.645a.645.645,0,0,1-.645.645Z" transform="translate(-7.745 0)" fill="#00aeef"/>
      <path id="Path_49597" data-name="Path 49597" d="M12.96,17.939a1.645,1.645,0,0,1-1.167-.483L8.31,13.973a.645.645,0,1,1,.912-.912L12.7,16.545a.361.361,0,0,0,.511,0L16.7,13.062a.645.645,0,1,1,.912.912l-3.484,3.483a1.646,1.646,0,0,1-1.167.483Z" transform="translate(-3.81 -5.777)" fill="#00aeef"/>
      <path id="Path_49598" data-name="Path 49598" d="M16.34,27.624H1.96a1.712,1.712,0,0,1-1.71-1.71V21.406a.645.645,0,0,1,1.29,0v4.508a.421.421,0,0,0,.42.42H16.34a.421.421,0,0,0,.42-.42V21.406a.645.645,0,0,1,1.29,0v4.508a1.712,1.712,0,0,1-1.71,1.71Z" transform="translate(0 -9.596)" fill="#367cc7"/>
    </g>
  </g>
</svg>
