<svg xmlns="http://www.w3.org/2000/svg" width="30" height="30" viewBox="0 0 30 30">
  <g id="Group_51100" data-name="Group 51100" transform="translate(-17 -163)">
    <circle id="Ellipse_1" data-name="Ellipse 1" cx="15" cy="15" r="15" transform="translate(17 163)" fill="#fff"/>
    <g id="Group_51120" data-name="Group 51120" transform="translate(18.778 164.862)">
      <path id="Path_49171" data-name="Path 49171" d="M20.445,8.323v-2a.542.542,0,0,0-.9-.405,1.359,1.359,0,0,1-1.806,0,1.359,1.359,0,0,0-1.806,0,1.359,1.359,0,0,1-1.806,0,1.359,1.359,0,0,0-1.806,0,1.359,1.359,0,0,1-1.806,0,1.359,1.359,0,0,0-1.806,0,1.359,1.359,0,0,1-1.806,0,.542.542,0,0,0-.9.405v8.422m14.445-3.21v8.422a.542.542,0,0,1-.9.405,1.359,1.359,0,0,0-1.806,0,1.359,1.359,0,0,1-1.806,0,1.359,1.359,0,0,0-1.806,0,1.359,1.359,0,0,1-1.806,0,1.359,1.359,0,0,0-1.806,0,1.359,1.359,0,0,1-1.806,0,1.359,1.359,0,0,0-1.806,0,.542.542,0,0,1-.9-.405v-2" fill="none" stroke="#367cc7" stroke-linecap="round" stroke-width="1.5"/>
      <path id="Path_49172" data-name="Path 49172" d="M10.5,18.5h3.21m4.012,0h-1.6" transform="translate(-0.889 -2.553)" fill="none" stroke="#00aeef" stroke-linecap="round" stroke-width="1.5"/>
      <path id="Path_49173" data-name="Path 49173" d="M17.722,15h-3.21M10.5,15h1.6" transform="translate(-0.889 -1.862)" fill="none" stroke="#00aeef" stroke-linecap="round" stroke-width="1.5"/>
      <path id="Path_49174" data-name="Path 49174" d="M10.5,11.5h7.222" transform="translate(-0.889 -1.171)" fill="none" stroke="#00aeef" stroke-linecap="round" stroke-width="1.5"/>
    </g>
  </g>
</svg>
