<svg xmlns="http://www.w3.org/2000/svg" width="25.029" height="20" viewBox="0 0 25.029 20">
  <g id="Group_50879" data-name="Group 50879" transform="translate(-204.387 -122.369)">
    <g id="Group_51321" data-name="Group 51321" transform="translate(204.384 122.369)">
      <g id="Group_51323" data-name="Group 51323" transform="translate(0.003)">
        <path id="Path_49576" data-name="Path 49576" d="M362.587,0a.133.133,0,0,1-.121.054c-2.156.052-4.312.008-6.468.022q-.459,0-.918,0c-.071,0-.148.011-.2-.052l0-.024Z" transform="translate(-344.513)" fill="#7cd4f6"/>
        <path id="Path_49577" data-name="Path 49577" d="M113.887,682.238a.085.085,0,0,0-.005-.026.229.229,0,0,1,.191-.051q2.02,0,4.039,0a.225.225,0,0,1,.19.051c0,.008,0,.017-.006.025Z" transform="translate(-110.558 -662.239)" fill="#689cd4"/>
        <path id="Path_49578" data-name="Path 49578" d="M592.716,682.238a.09.09,0,0,1-.007-.024c.051-.06.123-.052.19-.052q2.02,0,4.039,0a.234.234,0,0,1,.191.05.041.041,0,0,0,0,.026Z" transform="translate(-575.401 -662.238)" fill="#689bd4"/>
        <path id="Path_49579" data-name="Path 49579" d="M260.9.024l0-.024h2.044a.39.39,0,0,1-.208.055c-.438.037-.878.016-1.316.021-.116,0-.232,0-.348,0-.062,0-.128.005-.174-.051" transform="translate(-253.281)" fill="#99bce1"/>
        <path id="Path_49580" data-name="Path 49580" d="M.106,457.989H.094l-.012,0v-.292a.023.023,0,0,1,.023,0,.232.232,0,0,1,0,.3" transform="translate(-0.082 -444.321)" fill="#a3c2e5"/>
        <path id="Path_49581" data-name="Path 49581" d="M120.755.827c.063,0,.126,0,.189,0h7.235c.055,0,.117-.023.167.024a1.015,1.015,0,0,0-.608.591q-.977,2.045-1.958,4.089-2.832,5.909-5.66,11.82a.254.254,0,0,1-.273.169q-2.007-.009-4.014,0a1.012,1.012,0,0,1-1.005-.631q-.478-1.024-.982-2.035a1.119,1.119,0,0,1,0-1.058q2.807-5.84,5.6-11.685a2.817,2.817,0,0,1,.565-.912,1.394,1.394,0,0,1,.743-.376" transform="translate(-110.393 -0.803)" fill="#fff"/>
        <path id="Path_49582" data-name="Path 49582" d="M503.534,36.838a2.455,2.455,0,0,1-.378,0,.946.946,0,0,1-.739-.571q-1.922-4.025-3.854-8.044a.323.323,0,0,1,0-.318q1.614-3.356,3.216-6.717a.748.748,0,0,1,1.231-.225.894.894,0,0,1,.134.208q2.137,4.463,4.277,8.924a.232.232,0,0,1-.021.229l-2.669,5.557c-.076.158-.154.314-.225.474a.78.78,0,0,1-.785.495h-.19v-.008" transform="translate(-483.966 -20.121)" fill="#fff"/>
        <path id="Path_49583" data-name="Path 49583" d="M.886,14.468v-.3a1.011,1.011,0,0,1,.1-.347L4.617,6.249c.655-1.367,1.3-2.738,1.967-4.1A2.263,2.263,0,0,1,8.479.825q.844,0,1.688.006c.051,0,.107-.022.152.025a.916.916,0,0,0-.565.408,4.948,4.948,0,0,0-.395.747Q7.215,6.48,5.074,10.951C4.583,11.977,4.1,13,3.6,14.028a.645.645,0,0,0,0,.6q.738,1.53,1.469,3.063a.6.6,0,0,0,.591.369q2.211,0,4.423,0c.162,0,.162,0,.09.151q-.5,1.045-1,2.09a.765.765,0,0,1-.568.476c-.7,0-1.4,0-2.1,0q-1.16,0-2.319,0a.758.758,0,0,1-.558-.466q-.888-1.846-1.771-3.693-.425-.887-.85-1.775a1.137,1.137,0,0,1-.12-.373" transform="translate(-0.862 -0.801)" fill="#fff"/>
        <path id="Path_49584" data-name="Path 49584" d="M449.689,306.165l-4.42,0a.749.749,0,0,1-.566-.457q-.719-1.49-1.431-2.984l-2.4-5.023c-.024-.051-.052-.09-.018-.159.426-.879.847-1.76,1.27-2.641.014-.029.031-.057.055-.1.155.321.3.626.451.931q1.705,3.548,3.408,7.1a.99.99,0,0,0,.972.612c.326,0,.652,0,.978,0a.946.946,0,0,0,.91-.567q1.32-2.763,2.637-5.527c.07-.147.142-.294.226-.467.055.11.1.194.14.279.321.671.641,1.342.964,2.012a1.148,1.148,0,0,1,.006,1.052q-1.31,2.727-2.615,5.456a.791.791,0,0,1-.561.486" transform="translate(-427.962 -286.191)" fill="#fff"/>
      </g>
    </g>
  </g>
</svg>
