<svg xmlns="http://www.w3.org/2000/svg" width="25.5" height="25.5" viewBox="0 0 25.5 25.5">
  <g id="Group_51016" data-name="Group 51016" transform="translate(-4968.25 -684.25)">
    <path id="Path_48594" data-name="Path 48594" d="M857.7,11.641a.75.75,0,0,0-1.061,1.061Zm5.126,6.187v.75a.749.749,0,0,0,.75-.75Zm.75-4.243a.75.75,0,0,0-1.5,0Zm-4.992,3.493a.75.75,0,0,0,0,1.5ZM856.641,12.7l5.657,5.657,1.061-1.061L857.7,11.641Zm6.937,5.127V13.586h-1.5v4.243Zm-.75-.75h-4.242v1.5h4.242Z" transform="translate(4121 682)" fill="#fff"/>
    <path id="Path_48595" data-name="Path 48595" d="M874,17c0,5.657,0,8.485-1.757,10.243S867.657,29,862,29s-8.485,0-10.243-1.757S850,22.657,850,17s0-8.485,1.757-10.243S856.343,5,862,5s8.485,0,10.243,1.757c1.167,1.168,1.56,2.81,1.691,5.443" transform="translate(4119 680)" fill="none" stroke="#fff" stroke-linecap="round" stroke-width="1.5"/>
  </g>
</svg>
