<svg xmlns="http://www.w3.org/2000/svg" width="20.237" height="20.234" viewBox="0 0 20.237 20.234">
  <g id="Group_51356" data-name="Group 51356" transform="translate(-0.984 -0.866)">
    <g id="Layer_2" data-name="Layer 2" transform="translate(1.085 1)">
      <path id="Path_49585" data-name="Path 49585" d="M11.008,21a10,10,0,0,1-9.919-8.9.667.667,0,1,1,1.325-.147,8.663,8.663,0,1,0,.739-4.575.667.667,0,1,1-1.211-.559A10,10,0,1,1,12.127,20.938,10.2,10.2,0,0,1,11.008,21Z" transform="translate(-1.085 -1)" fill="#223f70" stroke="#223f70" stroke-width="0.2"/>
      <path id="Path_49586" data-name="Path 49586" d="M2.68,8.714a.666.666,0,0,1-.659-.571L1.507,4.606a.666.666,0,1,1,1.319-.191l.408,2.8,2.532-.65A.667.667,0,1,1,6.1,7.858l-3.252.835a.67.67,0,0,1-.166.021Z" transform="translate(-1.223 -1.948)" fill="#223f70" stroke="#223f70" stroke-width="0.2"/>
    </g>
  </g>
</svg>
