<svg xmlns="http://www.w3.org/2000/svg" width="30" height="30" viewBox="0 0 30 30">
  <g id="Group_51100" data-name="Group 51100" transform="translate(-17 -163)">
    <circle id="Ellipse_1" data-name="Ellipse 1" cx="15" cy="15" r="15" transform="translate(17 163)" fill="#fff"/>
    <g id="Group_51471" data-name="Group 51471" transform="translate(24.368 169.525)">
      <path id="Path_49614" data-name="Path 49614" d="M14.839,2.535C12.373,2.535,9.127,1.7,7.97.161A.439.439,0,0,0,7.353.1a.432.432,0,0,0-.061.061C6.135,1.7,2.89,2.535.423,2.535A.424.424,0,0,0,0,2.959V8.471c0,4.662,4.049,7.473,7.516,8.464a.417.417,0,0,0,.233,0c3.467-.99,7.516-3.8,7.516-8.464V2.959a.424.424,0,0,0-.424-.424Zm-.424,5.936c0,4.139-3.627,6.676-6.784,7.615C4.474,15.148.847,12.61.847,8.471v-5.1C3.3,3.293,6.2,2.5,7.631,1.06,9.067,2.5,11.965,3.293,14.415,3.376v5.1Zm0,0" transform="translate(0 0)" fill="#367cc7" stroke="#367cc7" stroke-width="0.5"/>
      <path id="Path_49615" data-name="Path 49615" d="M154.532,155.1v.848h-.424a.424.424,0,0,0-.424.424v3.392a.424.424,0,0,0,.424.424h4.24a.424.424,0,0,0,.424-.424v-3.392a.424.424,0,0,0-.424-.424h-.424V155.1a1.7,1.7,0,1,0-3.392,0Zm3.392,4.24h-3.392V156.8h3.392Zm-.848-4.24v.848h-1.7V155.1a.848.848,0,0,1,1.7,0Zm0,0" transform="translate(-148.597 -148.327)" fill="#00aeef" stroke="#00aeef" stroke-width="0.5"/>
    </g>
  </g>
</svg>
