<svg xmlns="http://www.w3.org/2000/svg" width="25.5" height="25.5" viewBox="0 0 25.5 25.5">
  <g id="Group_51015" data-name="Group 51015" transform="translate(-4961.25 -691.25)">
    <path id="Path_48596" data-name="Path 48596" d="M17.3,83.358A.75.75,0,0,0,18.359,82.3Zm-5.127-6.187v-.75a.75.75,0,0,0-.75.75Zm4.243.75a.75.75,0,0,0,0-1.5Zm-4.993,3.493a.75.75,0,0,0,1.5,0Zm6.937.884L12.7,76.641,11.641,77.7,17.3,83.358Zm-6.187-4.377h4.243v-1.5H12.172Zm-.75-.75v4.243h1.5V77.171Z" transform="translate(4959 624)" fill="#00aeef"/>
    <path id="Path_48597" data-name="Path 48597" d="M29,82c0,5.657,0,8.485-1.757,10.243S22.657,94,17,94,8.515,94,6.757,92.243,5,87.657,5,82s0-8.485,1.757-10.243S11.343,70,17,70s8.485,0,10.243,1.757c1.169,1.168,1.56,2.811,1.691,5.443" transform="translate(4957 622)" fill="none" stroke="#223f70" stroke-linecap="round" stroke-width="1.5"/>
  </g>
</svg>
