<svg xmlns="http://www.w3.org/2000/svg" xmlns:xlink="http://www.w3.org/1999/xlink" width="44" height="44" viewBox="0 0 44 44">
  <defs>
    <linearGradient id="linear-gradient" x1="0.5" x2="0.5" y2="1" gradientUnits="objectBoundingBox">
      <stop offset="0" stop-color="#00aeef"/>
      <stop offset="1" stop-color="#367cc7"/>
    </linearGradient>
  </defs>
  <g id="Group_51441" data-name="Group 51441" transform="translate(-176.984 -342.984)">
    <circle id="Ellipse_173" data-name="Ellipse 173" cx="22" cy="22" r="22" transform="translate(176.984 342.984)" fill="#00aeef" opacity="0.1"/>
    <circle id="Ellipse_174" data-name="Ellipse 174" cx="16" cy="16" r="16" transform="translate(182.984 348.984)" fill="url(#linear-gradient)"/>
    <g id="Group_51061" data-name="Group 51061" transform="translate(207.715 356.925) rotate(90)">
      <g id="Group_51060" data-name="Group 51060" transform="translate(0 0)">
        <path id="Path_48770" data-name="Path 48770" d="M4.453,1.324a.793.793,0,0,0,0-1.095A.73.73,0,0,0,3.4.224L1.962,1.7a18.486,18.486,0,0,0-1.3,1.415A2.886,2.886,0,0,0,.008,4.545,1,1,0,0,0,.985,5.676H14.7a.774.774,0,0,0,0-1.548H1.8l.034-.045A17.856,17.856,0,0,1,3.046,2.766Z" transform="translate(0.014)" fill="#fff"/>
        <path id="Path_48771" data-name="Path 48771" d="M.748,0A.761.761,0,0,0,0,.774a.761.761,0,0,0,.748.774H13.856l-.034.045A17.863,17.863,0,0,1,12.605,2.91L11.2,4.352a.793.793,0,0,0,0,1.095.731.731,0,0,0,1.058,0l1.438-1.474a18.5,18.5,0,0,0,1.3-1.415,2.886,2.886,0,0,0,.655-1.432c0-.024.006-.048.008-.072A.953.953,0,0,0,14.718,0Z" transform="translate(0 11.786)" fill="#fff"/>
      </g>
    </g>
  </g>
</svg>
