<svg xmlns="http://www.w3.org/2000/svg" width="25.5" height="25.5" viewBox="0 0 25.5 25.5">
  <g id="Group_50993" data-name="Group 50993" transform="translate(-4.25 -4.25)">
    <g id="Group_51478" data-name="Group 51478">
      <path id="Path_48259" data-name="Path 48259" d="M23.739,13.75c.558,0,1.011-.336,1.011-.75s-.453-.75-1.011-.75ZM10.261,13,9.6,12.435a.631.631,0,0,0-.282.828,1.047,1.047,0,0,0,.947.487Zm5.3-2.435a.625.625,0,0,0,.1-1.058,1.269,1.269,0,0,0-1.426-.072Zm8.18,1.685H10.261v1.5H23.739ZM10.926,13.565l4.633-3-1.329-1.13-4.633,3Z" transform="translate(0 1.097)" fill="#fff"/>
      <path id="Path_48260" data-name="Path 48260" d="M10.261,17.75c-.558,0-1.011-.336-1.011-.75s.453-.75,1.011-.75ZM23.739,17v-.75a1.047,1.047,0,0,1,.946.487.631.631,0,0,1-.282.828Zm-3.968,3.565a1.27,1.27,0,0,1-1.426-.072.625.625,0,0,1,.1-1.058Zm-9.51-4.315H23.739v1.5H10.261ZM24.4,17.565l-4.633,3-1.329-1.13,4.633-3Z" transform="translate(0 2.903)" fill="#fff"/>
    </g>
    <path id="Path_48261" data-name="Path 48261" d="M11,6.605A11.995,11.995,0,1,1,6.605,11" fill="none" stroke="#fff" stroke-linecap="round" stroke-width="1.5"/>
  </g>
</svg>
