<svg xmlns="http://www.w3.org/2000/svg" width="16.428" height="16.428" viewBox="0 0 16.428 16.428">
  <g id="Icon_ionic-ios-checkmark-circle-outline" data-name="Icon ionic-ios-checkmark-circle-outline" transform="translate(-3.225 -3.225)">
    <path id="Path_49589" data-name="Path 49589" d="M18.739,12.955l-.682-.7a.147.147,0,0,0-.109-.047h0a.141.141,0,0,0-.109.047l-4.73,4.765L11.388,15.3a.15.15,0,0,0-.217,0l-.69.69a.154.154,0,0,0,0,.221l2.171,2.171a.687.687,0,0,0,.454.221.719.719,0,0,0,.45-.213h0l5.184-5.211A.166.166,0,0,0,18.739,12.955Z" transform="translate(-3.167 -3.962)" fill="#00adee" stroke="#00adee" stroke-width="0.3"/>
    <path id="Path_49590" data-name="Path 49590" d="M11.439,4.461A6.976,6.976,0,1,1,6.5,6.5a6.932,6.932,0,0,1,4.935-2.043m0-1.086A8.064,8.064,0,1,0,19.5,11.439a8.063,8.063,0,0,0-8.064-8.064Z" fill="#00adee" stroke="#00adee" stroke-width="0.3"/>
  </g>
</svg>
