<svg xmlns="http://www.w3.org/2000/svg" width="30" height="30" viewBox="0 0 30 30">
  <g id="Group_51100" data-name="Group 51100" transform="translate(-17 -163)">
    <circle id="Ellipse_1" data-name="Ellipse 1" cx="15" cy="15" r="15" transform="translate(17 163)" fill="#fff"/>
    <g id="Group_51464" data-name="Group 51464" transform="translate(22.387 168.281)">
      <g id="Group_51463" data-name="Group 51463" transform="translate(2.11 0.859)">
        <path id="Path_49600" data-name="Path 49600" d="M14.664,9.524a2.879,2.879,0,0,1-2-.815,5.858,5.858,0,0,1-1.843-4.552,3.276,3.276,0,0,1,.623-1.664,3.985,3.985,0,0,1,6.431,0,3.276,3.276,0,0,1,.626,1.668v.013a5.948,5.948,0,0,1-1.845,4.54,2.885,2.885,0,0,1-2,.815Zm-.008-7.242h-.008a2.569,2.569,0,0,0-2.059,1.061,1.853,1.853,0,0,0-.35.974A4.5,4.5,0,0,0,13.652,7.68a1.432,1.432,0,0,0,2.028,0,4.5,4.5,0,0,0,1.412-3.37,1.847,1.847,0,0,0-.35-.968,2.607,2.607,0,0,0-2.086-1.061Z" transform="translate(-8.328 -0.859)" fill="#367cc7"/>
        <path id="Path_49601" data-name="Path 49601" d="M42.873,25.841a2.064,2.064,0,0,0-2.561-1.411,2.034,2.034,0,0,0-1.237.987l-.3.55-3.253,5.893a.713.713,0,0,0-.088.4l.2,2.45a.712.712,0,0,0,1.036.572l2.18-1.136a.715.715,0,0,0,.3-.288l3.252-5.89.3-.55a2.059,2.059,0,0,0,.175-1.577ZM38,32.984l-1.039.541-.1-1.168L39.326,27.9l1.136.627Zm3.452-6.254-.3.55-1.136-.627.3-.55a.665.665,0,0,1,.881-.254A.655.655,0,0,1,41.452,26.731Z" transform="translate(-25.95 -17.665)" fill="#00aeef"/>
        <path id="Path_49602" data-name="Path 49602" d="M10.657,43.019l-.069-.846H4.743a1.212,1.212,0,0,1-1.21-1.21v-.554a3.158,3.158,0,0,1,1.33-2.645,3.139,3.139,0,0,1,1.729-.516H10.3a3.143,3.143,0,0,1,1.445.352l.687-1.245a4.557,4.557,0,0,0-2.132-.53H6.591A4.444,4.444,0,0,0,2.11,40.409v.554A2.636,2.636,0,0,0,4.743,43.6H10.8A1.847,1.847,0,0,1,10.657,43.019Z" transform="translate(-2.11 -25.878)" fill="#367cc7"/>
      </g>
    </g>
  </g>
</svg>
