<svg xmlns="http://www.w3.org/2000/svg" width="20.192" height="16.697" viewBox="0 0 20.192 16.697">
  <g id="Group_51484" data-name="Group 51484" transform="translate(0 -44.308)">
    <g id="Group_51486" data-name="Group 51486" transform="translate(0 44.308)">
      <g id="Group_51485" data-name="Group 51485" transform="translate(0 0)">
        <path id="Path_49629" data-name="Path 49629" d="M17.279,44.308H2.912A2.916,2.916,0,0,0,0,47.22V58.093A2.916,2.916,0,0,0,2.912,61H17.279a2.916,2.916,0,0,0,2.912-2.912V47.22A2.916,2.916,0,0,0,17.279,44.308Zm1.747,10.1H14.755a1.747,1.747,0,0,1,0-3.495h4.271Zm0-4.66H14.755a2.912,2.912,0,0,0,0,5.824h4.271v2.524a1.749,1.749,0,0,1-1.747,1.747H2.912a1.749,1.749,0,0,1-1.747-1.747V47.22a1.749,1.749,0,0,1,1.747-1.747H17.279a1.749,1.749,0,0,1,1.747,1.747Z" transform="translate(0 -44.308)" fill="#223f70"/>
      </g>
    </g>
    <g id="Group_51488" data-name="Group 51488" transform="translate(14.173 52.074)">
      <g id="Group_51487" data-name="Group 51487" transform="translate(0 0)">
        <path id="Path_49630" data-name="Path 49630" d="M360.744,241.231h-.777a.582.582,0,0,0,0,1.165h.777a.582.582,0,1,0,0-1.165Z" transform="translate(-359.385 -241.231)" fill="#223f70"/>
      </g>
    </g>
  </g>
</svg>
