<svg xmlns="http://www.w3.org/2000/svg" width="21.5" height="20.574" viewBox="0 0 21.5 20.574">
  <g id="Group_50945" data-name="Group 50945" transform="translate(-4.25 -5.176)">
    <path id="Path_48213" data-name="Path 48213" d="M9,13h4" fill="#00aeef" stroke="#00aeef" stroke-linecap="round" stroke-linejoin="round" stroke-width="1.5"/>
    <path id="Path_48214" data-name="Path 48214" d="M25,15.5c0-.077,0-.533,0-.565a1.041,1.041,0,0,0-1-.932c-.035,0-.077,0-.16,0h-2.6A3.122,3.122,0,0,0,18,17a3.122,3.122,0,0,0,3.231,3h2.6c.083,0,.125,0,.16,0a1.041,1.041,0,0,0,1-.933c0-.033,0-.488,0-.565" fill="none" stroke="#223f70" stroke-linecap="round" stroke-width="1.5"/>
    <circle id="Ellipse_27" data-name="Ellipse 27" cx="1" cy="1" r="1" transform="translate(20 16)" fill="#00aeef" stroke="#00aeef" stroke-width="1"/>
    <path id="Path_48215" data-name="Path 48215" d="M13,25h3c3.771,0,5.657,0,6.828-1.172.808-.808,1.059-1.956,1.137-3.828m0-6c-.078-1.872-.328-3.02-1.137-3.828C21.657,9,19.771,9,16,9H13C9.229,9,7.343,9,6.172,10.172S5,13.229,5,17s0,5.657,1.172,6.828A4.325,4.325,0,0,0,9,24.9" fill="none" stroke="#223f70" stroke-linecap="round" stroke-width="1.5"/>
    <path id="Path_48216" data-name="Path 48216" d="M9,9l3.736-2.477a3.237,3.237,0,0,1,3.529,0L20,9" fill="none" stroke="#223f70" stroke-linecap="round" stroke-width="1.5"/>
  </g>
</svg>
